<svg width="120" height="120" viewBox="0 0 120 120" fill="none" xmlns="http://www.w3.org/2000/svg">
<path d="M59.9999 18C58.5161 43.9679 58.4084 70.9679 59.6768 99M43.9999 42.2949C49.7964 38.9334 55.1297 36.0351 59.9998 33.6001C64.8699 36.0351 70.2032 38.9334 75.9998 42.2949M79.9999 64.2097C73.7714 62.5874 67.1048 61.1841 60 60C52.8951 61.1841 46.2285 62.5874 40 64.2097M44.4999 87.1135C50.1034 84.6203 55.2701 82.7825 59.9998 81.6001C64.7295 82.7825 69.8962 84.6203 75.4998 87.1135" stroke="white" stroke-width="6" stroke-linecap="round"/>
<path d="M60 39.6001C63.3137 39.6001 66 36.9138 66 33.6001C66 30.2864 63.3137 27.6001 60 27.6001C56.6863 27.6001 54 30.2864 54 33.6001C54 36.9138 56.6863 39.6001 60 39.6001Z" fill="white"/>
<path d="M60 66C63.3137 66 66 63.3137 66 60C66 56.6863 63.3137 54 60 54C56.6863 54 54 56.6863 54 60C54 63.3137 56.6863 66 60 66Z" fill="white"/>
<path d="M60 87.6001C63.3137 87.6001 66 84.9138 66 81.6001C66 78.2864 63.3137 75.6001 60 75.6001C56.6863 75.6001 54 78.2864 54 81.6001C54 84.9138 56.6863 87.6001 60 87.6001Z" fill="white"/>
<path fill-rule="evenodd" clip-rule="evenodd" d="M60 25.1998C63.9765 25.1998 67.2001 21.9763 67.2001 17.9998C67.2001 14.0234 63.9765 10.7998 60 10.7998C56.0236 10.7998 52.8 14.0234 52.8 17.9998C52.8 21.9763 56.0236 25.1998 60 25.1998ZM60 21C61.6569 21 63 19.6569 63 18C63 16.3431 61.6569 15 60 15C58.3431 15 57 16.3431 57 18C57 19.6569 58.3431 21 60 21Z" fill="white"/>
<path fill-rule="evenodd" clip-rule="evenodd" d="M45.6 45.5999C45.6 49.5764 42.3764 52.7999 38.4 52.7999C34.4235 52.7999 31.2 49.5764 31.2 45.5999C31.2 41.6235 34.4235 38.3999 38.4 38.3999C42.3764 38.3999 45.6 41.6235 45.6 45.5999ZM38.3999 48.6001C40.0568 48.6001 41.3999 47.257 41.3999 45.6001C41.3999 43.9432 40.0568 42.6001 38.3999 42.6001C36.743 42.6001 35.3999 43.9432 35.3999 45.6001C35.3999 47.257 36.743 48.6001 38.3999 48.6001Z" fill="white"/>
<path fill-rule="evenodd" clip-rule="evenodd" d="M40.7999 65.9998C40.7999 69.9763 37.5764 73.1998 33.5999 73.1998C29.6235 73.1998 26.3999 69.9763 26.3999 65.9998C26.3999 62.0234 29.6235 58.7998 33.5999 58.7998C37.5764 58.7998 40.7999 62.0234 40.7999 65.9998ZM33.6001 69C35.257 69 36.6001 67.6569 36.6001 66C36.6001 64.3431 35.257 63 33.6001 63C31.9432 63 30.6001 64.3431 30.6001 66C30.6001 67.6569 31.9432 69 33.6001 69Z" fill="white"/>
<path fill-rule="evenodd" clip-rule="evenodd" d="M45.6 89.9998C45.6 93.9763 42.3764 97.1998 38.4 97.1998C34.4235 97.1998 31.2 93.9763 31.2 89.9998C31.2 86.0234 34.4235 82.7998 38.4 82.7998C42.3764 82.7998 45.6 86.0234 45.6 89.9998ZM38.3999 93C40.0568 93 41.3999 91.6569 41.3999 90C41.3999 88.3431 40.0568 87 38.3999 87C36.743 87 35.3999 88.3431 35.3999 90C35.3999 91.6569 36.743 93 38.3999 93Z" fill="white"/>
<path fill-rule="evenodd" clip-rule="evenodd" d="M67.2001 105.6C67.2001 109.576 63.9765 112.8 60 112.8C56.0236 112.8 52.8 109.576 52.8 105.6C52.8 101.623 56.0236 98.3999 60 98.3999C63.9765 98.3999 67.2001 101.623 67.2001 105.6ZM60 108.6C61.6569 108.6 63 107.257 63 105.6C63 103.943 61.6569 102.6 60 102.6C58.3431 102.6 57 103.943 57 105.6C57 107.257 58.3431 108.6 60 108.6Z" fill="white"/>
<path fill-rule="evenodd" clip-rule="evenodd" d="M88.7999 89.9998C88.7999 93.9763 85.5764 97.1998 81.5999 97.1998C77.6235 97.1998 74.3999 93.9763 74.3999 89.9998C74.3999 86.0234 77.6235 82.7998 81.5999 82.7998C85.5764 82.7998 88.7999 86.0234 88.7999 89.9998ZM81.6001 93C83.257 93 84.6001 91.6569 84.6001 90C84.6001 88.3431 83.257 87 81.6001 87C79.9432 87 78.6001 88.3431 78.6001 90C78.6001 91.6569 79.9432 93 81.6001 93Z" fill="white"/>
<path fill-rule="evenodd" clip-rule="evenodd" d="M93.6 65.9998C93.6 69.9763 90.3764 73.1998 86.4 73.1998C82.4235 73.1998 79.2 69.9763 79.2 65.9998C79.2 62.0234 82.4235 58.7998 86.4 58.7998C90.3764 58.7998 93.6 62.0234 93.6 65.9998ZM86.3999 69C88.0568 69 89.3999 67.6569 89.3999 66C89.3999 64.3431 88.0568 63 86.3999 63C84.743 63 83.3999 64.3431 83.3999 66C83.3999 67.6569 84.743 69 86.3999 69Z" fill="white"/>
<path fill-rule="evenodd" clip-rule="evenodd" d="M88.7999 45.5999C88.7999 49.5764 85.5764 52.7999 81.5999 52.7999C77.6235 52.7999 74.3999 49.5764 74.3999 45.5999C74.3999 41.6235 77.6235 38.3999 81.5999 38.3999C85.5764 38.3999 88.7999 41.6235 88.7999 45.5999ZM81.6001 48.6001C83.257 48.6001 84.6001 47.257 84.6001 45.6001C84.6001 43.9432 83.257 42.6001 81.6001 42.6001C79.9432 42.6001 78.6001 43.9432 78.6001 45.6001C78.6001 47.257 79.9432 48.6001 81.6001 48.6001Z" fill="white"/>
</svg>
